<mxfile host="Electron" modified="2023-06-13T00:08:30.416Z" agent="Mozilla/5.0 (Windows NT 10.0; Win64; x64) AppleWebKit/537.36 (KHTML, like Gecko) draw.io/21.3.7 Chrome/112.0.5615.204 Electron/24.5.0 Safari/537.36" etag="ly1fyE6YDr3Q91Nz2EHe" version="21.3.7" type="device">
  <diagram id="C5RBs43oDa-KdzZeNtuy" name="Page-1">
    <mxGraphModel dx="2340" dy="1393" grid="1" gridSize="10" guides="1" tooltips="1" connect="1" arrows="1" fold="1" page="1" pageScale="1" pageWidth="827" pageHeight="1169" math="0" shadow="0">
      <root>
        <mxCell id="WIyWlLk6GJQsqaUBKTNV-0" />
        <mxCell id="WIyWlLk6GJQsqaUBKTNV-1" parent="WIyWlLk6GJQsqaUBKTNV-0" />
        <mxCell id="wicSdvxGNrq9hEy_gD0b-0" value="&lt;b&gt;&lt;font style=&quot;font-size: 21px;&quot;&gt;LOGIN&lt;/font&gt;&lt;/b&gt;" style="ellipse;whiteSpace=wrap;html=1;aspect=fixed;fillColor=#647687;strokeColor=#314354;fontColor=#ffffff;" vertex="1" parent="WIyWlLk6GJQsqaUBKTNV-1">
          <mxGeometry x="323" y="540" width="140" height="140" as="geometry" />
        </mxCell>
        <mxCell id="wicSdvxGNrq9hEy_gD0b-1" value="" style="endArrow=classic;html=1;rounded=0;" edge="1" parent="WIyWlLk6GJQsqaUBKTNV-1">
          <mxGeometry relative="1" as="geometry">
            <mxPoint x="463" y="609.6" as="sourcePoint" />
            <mxPoint x="589" y="610" as="targetPoint" />
          </mxGeometry>
        </mxCell>
        <mxCell id="wicSdvxGNrq9hEy_gD0b-2" value="&lt;b&gt;USER&lt;/b&gt;" style="edgeLabel;resizable=0;html=1;align=center;verticalAlign=middle;" connectable="0" vertex="1" parent="wicSdvxGNrq9hEy_gD0b-1">
          <mxGeometry relative="1" as="geometry" />
        </mxCell>
        <mxCell id="wicSdvxGNrq9hEy_gD0b-5" value="" style="endArrow=classic;html=1;rounded=0;" edge="1" parent="WIyWlLk6GJQsqaUBKTNV-1">
          <mxGeometry relative="1" as="geometry">
            <mxPoint x="323" y="610" as="sourcePoint" />
            <mxPoint x="183" y="610" as="targetPoint" />
          </mxGeometry>
        </mxCell>
        <mxCell id="wicSdvxGNrq9hEy_gD0b-6" value="&lt;b&gt;SUPP&lt;br&gt;&lt;/b&gt;" style="edgeLabel;resizable=0;html=1;align=center;verticalAlign=middle;" connectable="0" vertex="1" parent="wicSdvxGNrq9hEy_gD0b-5">
          <mxGeometry relative="1" as="geometry" />
        </mxCell>
        <mxCell id="wicSdvxGNrq9hEy_gD0b-7" value="" style="endArrow=classic;html=1;rounded=0;" edge="1" parent="WIyWlLk6GJQsqaUBKTNV-1">
          <mxGeometry relative="1" as="geometry">
            <mxPoint x="393" y="540" as="sourcePoint" />
            <mxPoint x="393" y="410" as="targetPoint" />
          </mxGeometry>
        </mxCell>
        <mxCell id="wicSdvxGNrq9hEy_gD0b-8" value="&lt;b&gt;STAFF&lt;br&gt;&lt;/b&gt;" style="edgeLabel;resizable=0;html=1;align=center;verticalAlign=middle;" connectable="0" vertex="1" parent="wicSdvxGNrq9hEy_gD0b-7">
          <mxGeometry relative="1" as="geometry" />
        </mxCell>
        <mxCell id="wicSdvxGNrq9hEy_gD0b-9" value="&lt;b style=&quot;&quot;&gt;&lt;font style=&quot;font-size: 13px;&quot;&gt;Supplier-Dashboard&lt;/font&gt;&lt;/b&gt;" style="whiteSpace=wrap;html=1;aspect=fixed;fillColor=#6d8764;fontColor=#ffffff;strokeColor=#3A5431;" vertex="1" parent="WIyWlLk6GJQsqaUBKTNV-1">
          <mxGeometry x="54" y="545" width="130" height="130" as="geometry" />
        </mxCell>
        <mxCell id="wicSdvxGNrq9hEy_gD0b-10" value="&lt;b style=&quot;&quot;&gt;&lt;font style=&quot;font-size: 13px;&quot;&gt;User-Dashboard&lt;/font&gt;&lt;/b&gt;" style="whiteSpace=wrap;html=1;aspect=fixed;fillColor=#6d8764;fontColor=#ffffff;strokeColor=#3A5431;" vertex="1" parent="WIyWlLk6GJQsqaUBKTNV-1">
          <mxGeometry x="589" y="545" width="130" height="130" as="geometry" />
        </mxCell>
        <mxCell id="wicSdvxGNrq9hEy_gD0b-11" value="&lt;font size=&quot;1&quot; style=&quot;&quot;&gt;&lt;b style=&quot;font-size: 13px;&quot;&gt;Staff-Dashboard&lt;/b&gt;&lt;/font&gt;" style="whiteSpace=wrap;html=1;aspect=fixed;fillColor=#6d8764;fontColor=#ffffff;strokeColor=#3A5431;" vertex="1" parent="WIyWlLk6GJQsqaUBKTNV-1">
          <mxGeometry x="328" y="275" width="130" height="130" as="geometry" />
        </mxCell>
        <mxCell id="wicSdvxGNrq9hEy_gD0b-18" value="&lt;font style=&quot;font-size: 14px;&quot;&gt;&lt;b&gt;Managing Members:&lt;br&gt;&lt;/b&gt;&lt;br&gt;-Lend book to a user&lt;br&gt;-Add a member&lt;/font&gt;" style="rounded=1;whiteSpace=wrap;html=1;fillColor=#76608a;fontColor=#ffffff;strokeColor=#432D57;" vertex="1" parent="WIyWlLk6GJQsqaUBKTNV-1">
          <mxGeometry x="39" y="255" width="160" height="170" as="geometry" />
        </mxCell>
        <mxCell id="wicSdvxGNrq9hEy_gD0b-20" value="&lt;span style=&quot;font-size: 14px;&quot;&gt;&lt;b&gt;Managing Books:&lt;br&gt;&lt;/b&gt;&lt;br&gt;-Add a book&lt;br&gt;-Search book&lt;br&gt;-Mark book&lt;br&gt;-Modify book info&lt;br&gt;&lt;/span&gt;" style="rounded=1;whiteSpace=wrap;html=1;fillColor=#76608a;fontColor=#ffffff;strokeColor=#432D57;" vertex="1" parent="WIyWlLk6GJQsqaUBKTNV-1">
          <mxGeometry x="574" y="255" width="160" height="170" as="geometry" />
        </mxCell>
        <mxCell id="wicSdvxGNrq9hEy_gD0b-21" value="&lt;font style=&quot;font-size: 14px;&quot;&gt;&lt;b&gt;Within Dashboard&lt;br&gt;&lt;/b&gt;&lt;br&gt;-Search book&lt;br&gt;-Sell a book&lt;/font&gt;" style="rounded=1;whiteSpace=wrap;html=1;fillColor=#76608a;fontColor=#ffffff;strokeColor=#432D57;" vertex="1" parent="WIyWlLk6GJQsqaUBKTNV-1">
          <mxGeometry x="39" y="745" width="160" height="170" as="geometry" />
        </mxCell>
        <mxCell id="wicSdvxGNrq9hEy_gD0b-22" value="&lt;font style=&quot;font-size: 15px;&quot;&gt;&lt;b&gt;Membership:&lt;/b&gt;&lt;br&gt;&lt;br&gt;-Apply for a membership&lt;br&gt;&lt;/font&gt;" style="rounded=1;whiteSpace=wrap;html=1;fillColor=#76608a;fontColor=#ffffff;strokeColor=#432D57;" vertex="1" parent="WIyWlLk6GJQsqaUBKTNV-1">
          <mxGeometry x="449" y="745" width="160" height="170" as="geometry" />
        </mxCell>
        <mxCell id="wicSdvxGNrq9hEy_gD0b-23" value="&lt;font style=&quot;font-size: 14px;&quot;&gt;&lt;b&gt;Managing Books:&lt;/b&gt;&lt;br&gt;&lt;br&gt;-Search book&lt;br&gt;-Borrow Book&lt;br&gt;-Return Book&lt;br&gt;&lt;/font&gt;" style="rounded=1;whiteSpace=wrap;html=1;fillColor=#76608a;fontColor=#ffffff;strokeColor=#432D57;" vertex="1" parent="WIyWlLk6GJQsqaUBKTNV-1">
          <mxGeometry x="629" y="745" width="160" height="170" as="geometry" />
        </mxCell>
        <mxCell id="wicSdvxGNrq9hEy_gD0b-27" value="" style="endArrow=classic;html=1;rounded=0;entryX=0;entryY=0.5;entryDx=0;entryDy=0;exitX=1;exitY=0.5;exitDx=0;exitDy=0;" edge="1" parent="WIyWlLk6GJQsqaUBKTNV-1" source="wicSdvxGNrq9hEy_gD0b-11" target="wicSdvxGNrq9hEy_gD0b-20">
          <mxGeometry width="50" height="50" relative="1" as="geometry">
            <mxPoint x="463" y="345" as="sourcePoint" />
            <mxPoint x="573" y="345" as="targetPoint" />
          </mxGeometry>
        </mxCell>
        <mxCell id="wicSdvxGNrq9hEy_gD0b-29" value="" style="endArrow=classic;html=1;rounded=0;exitX=0;exitY=0.5;exitDx=0;exitDy=0;entryX=1;entryY=0.5;entryDx=0;entryDy=0;" edge="1" parent="WIyWlLk6GJQsqaUBKTNV-1" source="wicSdvxGNrq9hEy_gD0b-11" target="wicSdvxGNrq9hEy_gD0b-18">
          <mxGeometry width="50" height="50" relative="1" as="geometry">
            <mxPoint x="309" y="339.71" as="sourcePoint" />
            <mxPoint x="209" y="339.71" as="targetPoint" />
          </mxGeometry>
        </mxCell>
        <mxCell id="wicSdvxGNrq9hEy_gD0b-30" value="" style="endArrow=none;html=1;rounded=0;entryX=0.5;entryY=1;entryDx=0;entryDy=0;exitX=0.5;exitY=0;exitDx=0;exitDy=0;" edge="1" parent="WIyWlLk6GJQsqaUBKTNV-1" source="wicSdvxGNrq9hEy_gD0b-21" target="wicSdvxGNrq9hEy_gD0b-9">
          <mxGeometry width="50" height="50" relative="1" as="geometry">
            <mxPoint x="118.71000000000001" y="740" as="sourcePoint" />
            <mxPoint x="118.71000000000001" y="680" as="targetPoint" />
          </mxGeometry>
        </mxCell>
        <mxCell id="wicSdvxGNrq9hEy_gD0b-40" value="" style="edgeStyle=elbowEdgeStyle;elbow=vertical;endArrow=classic;html=1;curved=0;rounded=0;endSize=8;startSize=8;exitX=0.5;exitY=1;exitDx=0;exitDy=0;entryX=0.5;entryY=0;entryDx=0;entryDy=0;" edge="1" parent="WIyWlLk6GJQsqaUBKTNV-1" source="wicSdvxGNrq9hEy_gD0b-10" target="wicSdvxGNrq9hEy_gD0b-22">
          <mxGeometry width="50" height="50" relative="1" as="geometry">
            <mxPoint x="643" y="680" as="sourcePoint" />
            <mxPoint x="591" y="720" as="targetPoint" />
          </mxGeometry>
        </mxCell>
        <mxCell id="wicSdvxGNrq9hEy_gD0b-41" value="" style="edgeStyle=elbowEdgeStyle;elbow=vertical;endArrow=classic;html=1;curved=0;rounded=0;endSize=8;startSize=8;exitX=0.5;exitY=1;exitDx=0;exitDy=0;entryX=0.5;entryY=0;entryDx=0;entryDy=0;" edge="1" parent="WIyWlLk6GJQsqaUBKTNV-1" source="wicSdvxGNrq9hEy_gD0b-10" target="wicSdvxGNrq9hEy_gD0b-23">
          <mxGeometry width="50" height="50" relative="1" as="geometry">
            <mxPoint x="661" y="680" as="sourcePoint" />
            <mxPoint x="711" y="740" as="targetPoint" />
          </mxGeometry>
        </mxCell>
      </root>
    </mxGraphModel>
  </diagram>
</mxfile>
